<svg width="236" height="55" viewBox="0 0 236 55" fill="none" xmlns="http://www.w3.org/2000/svg">
<path d="M0.424716 54V3.09091H20.8082C24.5535 3.09091 27.6773 3.64607 30.1797 4.75639C32.6821 5.86671 34.563 7.40791 35.8224 9.37997C37.0819 11.3355 37.7116 13.5893 37.7116 16.1413C37.7116 18.13 37.3139 19.8783 36.5185 21.3864C35.723 22.8778 34.6293 24.1042 33.2372 25.0653C31.8617 26.0099 30.2874 26.6811 28.5142 27.0788V27.576C30.4531 27.6589 32.2678 28.2057 33.9581 29.2166C35.665 30.2275 37.0488 31.6444 38.1094 33.4673C39.17 35.2737 39.7003 37.428 39.7003 39.9304C39.7003 42.6316 39.0291 45.0429 37.6868 47.1641C36.361 49.2687 34.3973 50.9342 31.7955 52.1605C29.1937 53.3868 25.987 54 22.1754 54H0.424716ZM11.1882 45.2003H19.9631C22.9626 45.2003 25.1501 44.6286 26.5256 43.4851C27.901 42.325 28.5888 40.7839 28.5888 38.8615C28.5888 37.4529 28.2491 36.21 27.5696 35.1328C26.8902 34.0556 25.9207 33.2105 24.6612 32.5973C23.4183 31.9841 21.9351 31.6776 20.2116 31.6776H11.1882V45.2003ZM11.1882 24.3942H19.1676C20.6425 24.3942 21.9517 24.1373 23.0952 23.6236C24.2552 23.0933 25.1667 22.3475 25.8295 21.3864C26.509 20.4252 26.8487 19.2734 26.8487 17.9311C26.8487 16.0916 26.1941 14.6084 24.8849 13.4815C23.5923 12.3546 21.7528 11.7912 19.3665 11.7912H11.1882V24.3942ZM63.9057 54.7457C59.9782 54.7457 56.5975 53.9503 53.7637 52.3594C50.9464 50.7519 48.7755 48.4815 47.2509 45.5483C45.7263 42.5985 44.964 39.1101 44.964 35.0831C44.964 31.1555 45.7263 27.7086 47.2509 24.7422C48.7755 21.7758 50.9216 19.464 53.6891 17.8068C56.4732 16.1496 59.7379 15.321 63.4831 15.321C66.0021 15.321 68.347 15.727 70.5179 16.5391C72.7054 17.3345 74.6112 18.536 76.2353 20.1435C77.8759 21.7509 79.1519 23.7727 80.0634 26.2088C80.9748 28.6283 81.4306 31.4621 81.4306 34.7102V37.6186H49.1898V31.0561H71.4625C71.4625 29.5315 71.1311 28.1809 70.4682 27.0043C69.8053 25.8277 68.8856 24.9079 67.709 24.245C66.5489 23.5656 65.1983 23.2259 63.6571 23.2259C62.0497 23.2259 60.6245 23.5987 59.3816 24.3445C58.1552 25.0736 57.1941 26.0597 56.498 27.3026C55.802 28.5289 55.4457 29.8961 55.4292 31.4041V37.6435C55.4292 39.5327 55.7772 41.165 56.4732 42.5405C57.1858 43.916 58.1884 44.9766 59.481 45.7223C60.7736 46.468 62.3065 46.8409 64.0797 46.8409C65.2563 46.8409 66.3335 46.6752 67.3113 46.3438C68.289 46.0123 69.1259 45.5152 69.8219 44.8523C70.5179 44.1894 71.0482 43.3774 71.4128 42.4162L81.2069 43.0625C80.7097 45.4157 79.6905 47.4706 78.1493 49.2273C76.6247 50.9673 74.6526 52.3262 72.2331 53.304C69.8302 54.2652 67.0544 54.7457 63.9057 54.7457ZM99.2289 54.7209C96.7928 54.7209 94.6219 54.2983 92.7161 53.4531C90.8103 52.5914 89.3023 51.3236 88.1919 49.6499C87.0982 47.9595 86.5513 45.8549 86.5513 43.3359C86.5513 41.2147 86.9408 39.4332 87.7196 37.9915C88.4985 36.5497 89.5591 35.3897 90.9015 34.5114C92.2438 33.633 93.7684 32.9702 95.4753 32.5227C97.1988 32.0753 99.0051 31.7604 100.894 31.5781C103.115 31.3461 104.905 31.1307 106.264 30.9318C107.623 30.7164 108.609 30.4015 109.222 29.9872C109.835 29.5729 110.142 28.9598 110.142 28.1477V27.9986C110.142 26.4242 109.644 25.2062 108.65 24.3445C107.672 23.4827 106.28 23.0518 104.474 23.0518C102.568 23.0518 101.052 23.4744 99.9249 24.3196C98.798 25.1482 98.0523 26.1922 97.6877 27.4517L87.8936 26.6562C88.3908 24.3362 89.3685 22.331 90.8269 20.6406C92.2852 18.9337 94.1661 17.6245 96.4696 16.7131C98.7897 15.785 101.474 15.321 104.524 15.321C106.645 15.321 108.675 15.5696 110.614 16.0668C112.569 16.5639 114.301 17.3345 115.809 18.3785C117.334 19.4226 118.535 20.7649 119.414 22.4055C120.292 24.0296 120.731 25.9768 120.731 28.2472V54H110.688V48.7053H110.39C109.777 49.8984 108.957 50.9508 107.929 51.8622C106.902 52.7571 105.667 53.4614 104.225 53.9751C102.784 54.4723 101.118 54.7209 99.2289 54.7209ZM102.262 47.4126C103.819 47.4126 105.195 47.1061 106.388 46.4929C107.581 45.8632 108.517 45.018 109.197 43.9574C109.876 42.8968 110.216 41.6953 110.216 40.353V36.3011C109.885 36.5166 109.429 36.7154 108.849 36.8977C108.285 37.0634 107.647 37.2209 106.935 37.37C106.222 37.5026 105.51 37.6269 104.797 37.7429C104.084 37.8423 103.438 37.9335 102.858 38.0163C101.615 38.1986 100.53 38.4886 99.6017 38.8864C98.6737 39.2841 97.9528 39.8227 97.4391 40.5021C96.9254 41.165 96.6685 41.9936 96.6685 42.9879C96.6685 44.4297 97.1905 45.5317 98.2346 46.294C99.2952 47.0398 100.637 47.4126 102.262 47.4126ZM149.256 15.8182V23.7727H126.262V15.8182H149.256ZM131.482 6.67045H142.072V42.267C142.072 43.2448 142.221 44.0071 142.519 44.554C142.817 45.0843 143.232 45.4571 143.762 45.6726C144.309 45.888 144.939 45.9957 145.651 45.9957C146.148 45.9957 146.645 45.9543 147.143 45.8714C147.64 45.772 148.021 45.6974 148.286 45.6477L149.952 53.5277C149.421 53.6934 148.675 53.884 147.714 54.0994C146.753 54.3314 145.585 54.4723 144.209 54.522C141.657 54.6214 139.42 54.2817 137.498 53.5028C135.592 52.724 134.109 51.5142 133.048 49.8736C131.988 48.233 131.465 46.1615 131.482 43.6591V6.67045ZM156.154 54V15.8182H166.42V22.4801H166.818C167.514 20.1103 168.682 18.3205 170.323 17.1108C171.963 15.8845 173.852 15.2713 175.99 15.2713C176.521 15.2713 177.092 15.3044 177.705 15.3707C178.319 15.437 178.857 15.5282 179.321 15.6442V25.0405C178.824 24.8913 178.136 24.7588 177.258 24.6428C176.38 24.5268 175.576 24.4688 174.847 24.4688C173.289 24.4688 171.897 24.8085 170.671 25.4879C169.461 26.1508 168.5 27.0788 167.787 28.272C167.091 29.4652 166.743 30.8407 166.743 32.3984V54H156.154ZM184.796 54V15.8182H195.386V54H184.796ZM190.116 10.8963C188.541 10.8963 187.191 10.3743 186.064 9.33025C184.954 8.26965 184.398 7.00189 184.398 5.52699C184.398 4.06865 184.954 2.81747 186.064 1.77344C187.191 0.71283 188.541 0.182526 190.116 0.182526C191.69 0.182526 193.032 0.71283 194.143 1.77344C195.27 2.81747 195.833 4.06865 195.833 5.52699C195.833 7.00189 195.27 8.26965 194.143 9.33025C193.032 10.3743 191.69 10.8963 190.116 10.8963ZM203.67 54V47.6861L222.363 24.5433V24.2699H204.316V15.8182H235.115V22.7038L217.565 45.2749V45.5483H235.761V54H203.67Z" fill="black"/>
</svg>
